<?xml version="1.0" encoding="utf-8"?>
<!-- Generator: Adobe Illustrator 22.1.0, SVG Export Plug-In . SVG Version: 6.00 Build 0)  -->
<svg version="1.1" id="Layer_1" xmlns="http://www.w3.org/2000/svg" xmlns:xlink="http://www.w3.org/1999/xlink" x="0px" y="0px"
	 viewBox="0 0 616 210" style="enable-background:new 0 0 616 210;" xml:space="preserve">
<style type="text/css">
	.st0{fill:#F15422;}
</style>
<path class="st0" d="M171.6,56.9c-2.3,8.3-4.5,16.4-6.8,24.6c-7,25.4-14.1,50.7-21,76.1c-0.6,2.1-1.4,3-3.8,3
	c-6.3-0.2-12.5-0.1-18.8,0c-2,0-2.9-0.5-3.6-2.5c-6.9-21.4-13.8-42.6-20.9-63.9c-0.1-0.5-0.5-1.1-1-2.2c-1.8,5.4-3.5,10.5-5.2,15.4
	c-5.7,17-11.3,34.1-16.9,51.2c-0.5,1.6-1.3,2-2.8,1.9c-6.8,0-13.7-0.1-20.5,0c-1.8,0-2.4-0.6-2.8-2.2c-7.4-27.3-15-54.7-22.7-81.9
	c-1.6-5.8-3.1-11.6-4.8-17.4c-0.5-1.7-0.1-2.1,1.8-2.1C34.4,56.9,47.3,67,50.9,80c1.9,7,3.8,14.1,5.5,21.1c1.9,7,3.7,14.1,5.7,21.5
	c2-3.3,2.6-7,3.8-10.4c5-14.9,9.8-29.9,14.7-44.7c2.4-7.4,6.9-10.5,15-10.7c11.1-0.4,13.7,2.1,17,12.2c5.4,17.2,11.2,34.2,16.7,51.2
	c0.3,0.7,0.4,1.6,1.3,2.3c2.1-8.1,4.2-16,6.2-23.9c1.6-6.3,3.1-12.6,4.9-18.9C145.1,66.9,157.4,57,170,57
	C170.4,56.8,170.9,56.9,171.6,56.9z"/>
<path class="st0" d="M373.8,152.8c0,2.5-0.1,4.1,0,5.7c0.1,1.5-0.3,2.1-2,2.1c-6-0.1-12.1-0.1-18.1,0c-2.1,0-1.9-1.1-1.9-2.5
	c0-7.5,0-15.1,0-22.5c0-19.5,0-39.1,0-58.6c0-11.7,7.7-20.5,19.4-22.5c2.1-0.4,3,0,2.9,2.5c-0.1,11.2-0.1,22.5-0.1,33.8
	c0,1,0,1.9,0,3c12-9.5,24.7-10.1,37.9-3.9c7.8,3.7,12.7,10.2,15.4,18.3c4.4,13.3,4,26.5-3.6,38.8c-8.8,14.1-28.3,19.6-42.3,12.5
	C378.7,157.7,376.4,155.8,373.8,152.8z M407.4,124.1c0-8.4-3.6-14.3-10.2-16.8c-12.7-4.8-24.5,4.4-23.4,18.1
	c0.8,8.6,4.8,14.2,11.7,16.2C397.4,144.9,407.5,136.9,407.4,124.1z"/>
<path class="st0" d="M208.6,153.2c-10.6,11.6-28.9,12.8-39.6,2.7c-11.2-10.6-8.4-27.9,5.7-34.6c5.5-2.7,11.6-3.1,17.5-4.1
	c3.3-0.5,6.5-1,9.8-1.5c2.4-0.4,4.3-1.2,4.9-3.7c0.6-2.6-0.5-4.7-2.3-6.4c-6.4-5.8-18.4-2.5-20.6,5.8c-0.5,1.7-0.8,2.2-2.8,1.7
	c-5-1.2-10.2-2.2-15.4-3.1c-1.9-0.4-2.1-1.1-1.8-2.8c2.1-10.5,12.2-19.4,24.4-21.2c7.3-1.1,14.7-0.9,21.8,1.2
	c11.3,3.2,18.6,12.8,18.9,25.1c0.1,11.7,0,23.4,0,35.3c0,3.7,0,7.3,0.6,11c0.3,1.5,0.1,2.1-1.6,2.1c-3.8-0.1-7.4,0-11.2,0
	C212.4,160.3,210,157.5,208.6,153.2z M193.7,146.4c11.6-0.1,13.8-8.3,13.6-16.3c0-1.4-1.1-1.2-2-1.1c-4.9,0.7-9.7,1.5-14.5,2.5
	c-2.9,0.6-5.3,2.5-5.8,5.7C184.1,143.1,187.3,146.4,193.7,146.4z"/>
<path class="st0" d="M321,153.2c-8.8,10.4-19.9,11.4-31.7,7.5c-8.6-2.7-14.3-10.7-14.7-19.5c-0.4-9.1,4.2-16.2,13-20.2
	c5.5-2.5,11.5-3,17.2-3.8c3.1-0.5,6.4-1,9.6-1.5c2.1-0.4,4.2-1,4.8-3.5c0.5-2.5,0-4.7-1.9-6.5c-6.3-5.9-18.9-2.7-20.9,5.6
	c-0.5,2.1-1.1,2.1-2.9,1.7c-5-1.1-10.1-2.1-15.1-3c-1.9-0.4-2.3-1.1-1.9-2.8c2.3-9.4,8.2-15.8,17.1-19.3c10.6-4.1,21.4-3.8,31.8,0.1
	s15.6,12.3,16,23.1s0.1,21.5,0.1,32.3c0,4.9-0.3,9.9,0.6,14.8c0.3,1.7-0.3,2.2-2,2.1c-2.9-0.1-5.8,0-8.8,0
	C325.4,160.5,323.2,159,321,153.2z M319.4,133.2c0.4-4.6,0.4-4.6-4.2-3.7c-0.8,0.1-1.6,0.1-2.4,0.4c-3.7,0.7-7.4,0.7-10.8,2.1
	c-3.8,1.6-5.4,4.4-4.8,8.5c0.6,3.5,3.3,5.7,7.2,5.9C311.5,146.9,319.4,143.9,319.4,133.2z"/>
<path class="st0" d="M483.8,153c-10.8,11.7-29.3,12.8-39.8,2.7c-11.1-10.7-8.2-27.6,5.7-34.4c5.7-2.7,11.8-3.2,17.9-4.1
	c3.1-0.5,6.3-1,9.6-1.5c2.4-0.4,4.5-1.2,5-3.9c0.5-2.7-0.6-4.8-2.8-6.5c-3.3-2.6-7.3-2.8-11.2-2.1c-4.9,0.9-8.2,3.8-9.3,8.6
	c-0.4,1.6-0.9,1.7-2.4,1.4c-5-1.1-10.2-2.2-15.4-3c-2.3-0.4-2.4-1.4-2-3.2c2.4-9.1,8.3-15.6,17.1-18.9c10.6-4.1,21.4-3.8,31.8,0.2
	c10.3,3.9,15.5,12.1,15.9,22.7c0.4,12,0.1,24.1,0.1,36.2c0,3.8,0.1,7.7,0.8,11.5c0.3,1.6-0.1,1.9-1.6,1.9c-3.8-0.1-7.7,0.1-11.5-0.1
	C487.3,160.3,484.9,157.5,483.8,153z M482.1,132.6c0-4.1,0-4.1-3.9-3.3c-1,0.2-2,0.2-3,0.5c-3.7,0.7-7.4,0.7-10.8,2.2
	c-3.8,1.6-5.3,4.7-4.5,8.6c0.6,3.2,3.4,5.4,7.2,5.7C476.4,147.1,482,141.9,482.1,132.6z"/>
<path class="st0" d="M524.4,125.7c0-5.3-0.1-10.6,0-16c0-1.9-0.4-2.7-2.5-2.6c-2.9,0.1-5.8,0-8.8,0.1c-1.5,0-2.1-0.4-2.1-2
	c0.1-5.2,0.1-10.5,0-15.7c0-1.5,0.5-2,1.9-1.9c0.8,0.1,1.6,0,2.4,0c6.4-0.2,10.7-4.3,10.8-10.6c0.1-4.7-0.4-9.5,1.9-13.9
	c3.1-6.5,8.3-10.4,15.6-11.6c2.3-0.4,3.1,0,3,2.6c-0.1,10.2,0,20.5-0.1,30.7c0,2.2,0.4,3.2,2.9,3c3.1-0.2,6.3,0,9.3-0.1
	c1.6,0,2.4,0.4,2.3,2.1c-0.1,5.2-0.1,10.2,0,15.4c0,1.6-0.5,2.1-2,2c-3.5-0.1-7.1,0-10.6,0c-1.4,0-1.9,0.4-1.9,1.9
	c0.1,8.9,0,17.8,0.1,26.7c0,3.7,2.4,5.9,6.5,6.4c0.9,0.1,1.8,0.1,2.8,0c4.7-0.2,4.7-0.2,4.7,4.3c0,3.8,0,7.7,0,11.6
	c0,1.1-0.1,2-1.5,2.6c-10.2,4.6-26.1,0.1-31.8-9.1c-1.9-3.1-3-6.4-3.1-10C524.6,136.1,524.6,131,524.4,125.7
	C524.6,125.7,524.6,125.7,524.4,125.7z"/>
<path class="st0" d="M262.1,129.4c0,12.2,0,24.4,0,36.7c0,8.5-2.8,15.8-10.3,20.6c-7.9,5.1-16.6,4.7-25.3,2.3c-1-0.2-1.5-0.9-1.5-2
	c0-5.2,0-10.2,0-15.4c0-1.1,0.3-1.6,1.6-1.4c1.1,0.2,2.4,0.4,3.5,0.5c5.8,0.4,9.2-2.7,9.2-8.4c0-17.5,0-34.9,0-52.5
	c0-11.4,8.1-20.4,19.4-22.2c2.5-0.4,3.3,0.1,3.3,2.7C262,103.6,262.1,116.5,262.1,129.4z"/>
<path class="st0" d="M391.5,26.1c35.6,0.2,68.2,6.9,98.9,22c3.5,1.7,3.5,1.7,1.6,5.2c-3.2,5.8-3.2,5.7-9.4,2.8
	c-17.7-8.4-36.5-13.8-56-16.8c-25.9-3.9-51.7-3.5-77.4,1.7c-19.8,3.9-38.4,10.6-55.8,20.7c-2.1,1.2-3.3,1.2-4.3-1.1
	c-0.4-1-1.1-1.9-1.8-2.8c-2.3-3.7-2.3-3.7,1.6-5.8c21-11.8,43.5-19.1,67.3-23C368.6,27.1,380.7,26.3,391.5,26.1z"/>
<path class="st0" d="M581.8,161.7c-8.4-0.1-15.1-6.8-15-15.3c0.1-8.1,7.1-14.7,15.4-14.7c8.4,0.1,15.5,7,15.4,15.2
	C597.4,155.2,590.3,161.8,581.8,161.7z"/>
<path class="st0" d="M250.8,52.5c7.6,0.1,13.3,5.8,13.3,13.1c-0.1,7.2-6.3,13.1-13.7,13c-7.3-0.1-13-6-12.8-13.3
	C237.6,58,243.4,52.5,250.8,52.5z"/>
</svg>
